<mxfile host="app.diagrams.net" modified="2023-01-27T15:07:02.314Z" agent="5.0 (X11; Ubuntu)" etag="04uVVYbDazS9O6llXT7-" version="20.8.11" type="github">
  <diagram name="Página-1" id="5WBGiELmqsWAcPWYlHLE">
    <mxGraphModel dx="1434" dy="771" grid="1" gridSize="10" guides="1" tooltips="1" connect="1" arrows="1" fold="1" page="1" pageScale="1" pageWidth="827" pageHeight="1169" math="0" shadow="0">
      <root>
        <mxCell id="0" />
        <mxCell id="1" parent="0" />
        <mxCell id="gXidW__dARr8UnIKEGGO-8" style="edgeStyle=none;rounded=0;orthogonalLoop=1;jettySize=auto;html=1;exitX=1;exitY=0.3333333333333333;exitDx=0;exitDy=0;exitPerimeter=0;entryX=0;entryY=0.5;entryDx=0;entryDy=0;endArrow=none;endFill=0;" edge="1" parent="1" source="gXidW__dARr8UnIKEGGO-1" target="gXidW__dARr8UnIKEGGO-2">
          <mxGeometry relative="1" as="geometry" />
        </mxCell>
        <mxCell id="gXidW__dARr8UnIKEGGO-1" value="&lt;div&gt;Cliente no &lt;br&gt;&lt;/div&gt;&lt;div&gt;registrado&lt;/div&gt;" style="shape=umlActor;verticalLabelPosition=bottom;verticalAlign=top;html=1;outlineConnect=0;fillColor=#f5f5f5;strokeColor=#666666;gradientColor=#b3b3b3;" vertex="1" parent="1">
          <mxGeometry x="90" y="90" width="30" height="60" as="geometry" />
        </mxCell>
        <mxCell id="gXidW__dARr8UnIKEGGO-9" style="edgeStyle=none;rounded=0;orthogonalLoop=1;jettySize=auto;html=1;exitX=1;exitY=0.5;exitDx=0;exitDy=0;dashed=1;" edge="1" parent="1" source="gXidW__dARr8UnIKEGGO-2" target="gXidW__dARr8UnIKEGGO-3">
          <mxGeometry relative="1" as="geometry" />
        </mxCell>
        <mxCell id="gXidW__dARr8UnIKEGGO-2" value="registrarse" style="ellipse;whiteSpace=wrap;html=1;fillColor=#d5e8d4;strokeColor=#82b366;" vertex="1" parent="1">
          <mxGeometry x="230" y="80" width="120" height="40" as="geometry" />
        </mxCell>
        <mxCell id="gXidW__dARr8UnIKEGGO-10" style="edgeStyle=none;rounded=0;orthogonalLoop=1;jettySize=auto;html=1;exitX=1;exitY=0.5;exitDx=0;exitDy=0;dashed=1;startArrow=classic;startFill=1;endArrow=none;endFill=0;" edge="1" parent="1" source="gXidW__dARr8UnIKEGGO-3" target="gXidW__dARr8UnIKEGGO-4">
          <mxGeometry relative="1" as="geometry" />
        </mxCell>
        <mxCell id="gXidW__dARr8UnIKEGGO-3" value="asociar tarjeta" style="ellipse;whiteSpace=wrap;html=1;fillColor=#d5e8d4;strokeColor=#82b366;" vertex="1" parent="1">
          <mxGeometry x="440" y="80" width="120" height="40" as="geometry" />
        </mxCell>
        <mxCell id="gXidW__dARr8UnIKEGGO-4" value="establecer limite" style="ellipse;whiteSpace=wrap;html=1;fillColor=#fff2cc;strokeColor=#d6b656;" vertex="1" parent="1">
          <mxGeometry x="680" y="80" width="120" height="40" as="geometry" />
        </mxCell>
        <mxCell id="gXidW__dARr8UnIKEGGO-5" value="establecer limite" style="ellipse;whiteSpace=wrap;html=1;fillColor=#d5e8d4;strokeColor=#82b366;" vertex="1" parent="1">
          <mxGeometry x="200" y="200" width="120" height="40" as="geometry" />
        </mxCell>
        <mxCell id="gXidW__dARr8UnIKEGGO-7" style="edgeStyle=none;rounded=0;orthogonalLoop=1;jettySize=auto;html=1;exitX=1;exitY=0.3333333333333333;exitDx=0;exitDy=0;exitPerimeter=0;entryX=0;entryY=0.5;entryDx=0;entryDy=0;endArrow=none;endFill=0;" edge="1" parent="1" source="gXidW__dARr8UnIKEGGO-6" target="gXidW__dARr8UnIKEGGO-5">
          <mxGeometry relative="1" as="geometry" />
        </mxCell>
        <mxCell id="gXidW__dARr8UnIKEGGO-11" style="edgeStyle=none;rounded=0;orthogonalLoop=1;jettySize=auto;html=1;endArrow=classic;endFill=1;" edge="1" parent="1" source="gXidW__dARr8UnIKEGGO-6" target="gXidW__dARr8UnIKEGGO-1">
          <mxGeometry relative="1" as="geometry" />
        </mxCell>
        <mxCell id="gXidW__dARr8UnIKEGGO-19" style="edgeStyle=none;rounded=0;orthogonalLoop=1;jettySize=auto;html=1;exitX=1;exitY=0.3333333333333333;exitDx=0;exitDy=0;exitPerimeter=0;entryX=0;entryY=0.5;entryDx=0;entryDy=0;startArrow=none;startFill=0;endArrow=none;endFill=0;" edge="1" parent="1" source="gXidW__dARr8UnIKEGGO-6" target="gXidW__dARr8UnIKEGGO-18">
          <mxGeometry relative="1" as="geometry" />
        </mxCell>
        <mxCell id="gXidW__dARr8UnIKEGGO-6" value="&lt;div&gt;Cliente &lt;br&gt;&lt;/div&gt;&lt;div&gt;registrado&lt;/div&gt;" style="shape=umlActor;verticalLabelPosition=bottom;verticalAlign=top;html=1;outlineConnect=0;fillColor=#f5f5f5;strokeColor=#666666;gradientColor=#b3b3b3;" vertex="1" parent="1">
          <mxGeometry x="90" y="260" width="30" height="60" as="geometry" />
        </mxCell>
        <mxCell id="gXidW__dARr8UnIKEGGO-12" value="&amp;lt;include&amp;gt;" style="text;html=1;align=center;verticalAlign=middle;resizable=0;points=[];autosize=1;strokeColor=none;fillColor=none;" vertex="1" parent="1">
          <mxGeometry x="360" y="50" width="80" height="30" as="geometry" />
        </mxCell>
        <mxCell id="gXidW__dARr8UnIKEGGO-16" style="edgeStyle=none;rounded=0;orthogonalLoop=1;jettySize=auto;html=1;exitX=0;exitY=1;exitDx=0;exitDy=0;exitPerimeter=0;entryX=0.5;entryY=1;entryDx=0;entryDy=0;endArrow=none;endFill=0;" edge="1" parent="1" source="gXidW__dARr8UnIKEGGO-15" target="gXidW__dARr8UnIKEGGO-3">
          <mxGeometry relative="1" as="geometry">
            <Array as="points">
              <mxPoint x="690" y="180" />
            </Array>
          </mxGeometry>
        </mxCell>
        <mxCell id="gXidW__dARr8UnIKEGGO-61" style="edgeStyle=none;rounded=0;orthogonalLoop=1;jettySize=auto;html=1;entryX=0.5;entryY=0;entryDx=0;entryDy=0;startArrow=none;startFill=0;endArrow=none;endFill=0;" edge="1" parent="1" source="gXidW__dARr8UnIKEGGO-15" target="gXidW__dARr8UnIKEGGO-36">
          <mxGeometry relative="1" as="geometry" />
        </mxCell>
        <mxCell id="gXidW__dARr8UnIKEGGO-15" value="banco" style="shape=umlActor;verticalLabelPosition=bottom;verticalAlign=top;html=1;outlineConnect=0;fillColor=#f5f5f5;strokeColor=#666666;gradientColor=#b3b3b3;" vertex="1" parent="1">
          <mxGeometry x="880" y="80" width="30" height="60" as="geometry" />
        </mxCell>
        <mxCell id="gXidW__dARr8UnIKEGGO-17" value="&amp;lt;extend&amp;gt;" style="text;html=1;align=center;verticalAlign=middle;resizable=0;points=[];autosize=1;strokeColor=none;fillColor=none;" vertex="1" parent="1">
          <mxGeometry x="590" y="60" width="70" height="30" as="geometry" />
        </mxCell>
        <mxCell id="gXidW__dARr8UnIKEGGO-21" style="edgeStyle=none;rounded=0;orthogonalLoop=1;jettySize=auto;html=1;exitX=1;exitY=0.5;exitDx=0;exitDy=0;entryX=0;entryY=0.5;entryDx=0;entryDy=0;startArrow=none;startFill=0;endArrow=classic;endFill=1;dashed=1;" edge="1" parent="1" source="gXidW__dARr8UnIKEGGO-18" target="gXidW__dARr8UnIKEGGO-20">
          <mxGeometry relative="1" as="geometry" />
        </mxCell>
        <mxCell id="gXidW__dARr8UnIKEGGO-18" value="realizar pedido" style="ellipse;whiteSpace=wrap;html=1;fillColor=#d5e8d4;strokeColor=#82b366;" vertex="1" parent="1">
          <mxGeometry x="200" y="280" width="120" height="40" as="geometry" />
        </mxCell>
        <mxCell id="gXidW__dARr8UnIKEGGO-20" value="Autenticarse" style="ellipse;whiteSpace=wrap;html=1;fillColor=#fff2cc;strokeColor=#d6b656;" vertex="1" parent="1">
          <mxGeometry x="400" y="200" width="120" height="40" as="geometry" />
        </mxCell>
        <mxCell id="gXidW__dARr8UnIKEGGO-22" value="&amp;lt;include&amp;gt;" style="text;html=1;align=center;verticalAlign=middle;resizable=0;points=[];autosize=1;strokeColor=none;fillColor=none;rotation=-45;" vertex="1" parent="1">
          <mxGeometry x="334" y="250" width="80" height="30" as="geometry" />
        </mxCell>
        <mxCell id="gXidW__dARr8UnIKEGGO-23" value="&lt;div&gt;precondición de&lt;/div&gt;&lt;div&gt;realizar pedido&lt;/div&gt;" style="text;html=1;align=center;verticalAlign=middle;resizable=0;points=[];autosize=1;strokeColor=none;fillColor=none;" vertex="1" parent="1">
          <mxGeometry x="390" y="165" width="110" height="40" as="geometry" />
        </mxCell>
        <mxCell id="gXidW__dARr8UnIKEGGO-26" style="edgeStyle=none;rounded=0;orthogonalLoop=1;jettySize=auto;html=1;exitX=1;exitY=0.5;exitDx=0;exitDy=0;entryX=0;entryY=0.5;entryDx=0;entryDy=0;dashed=1;startArrow=none;startFill=0;endArrow=classic;endFill=1;" edge="1" parent="1" source="gXidW__dARr8UnIKEGGO-24" target="gXidW__dARr8UnIKEGGO-25">
          <mxGeometry relative="1" as="geometry" />
        </mxCell>
        <mxCell id="gXidW__dARr8UnIKEGGO-32" style="edgeStyle=none;rounded=0;orthogonalLoop=1;jettySize=auto;html=1;exitX=0;exitY=0.5;exitDx=0;exitDy=0;entryX=1;entryY=0.5;entryDx=0;entryDy=0;dashed=1;startArrow=none;startFill=0;endArrow=classic;endFill=1;" edge="1" parent="1" source="gXidW__dARr8UnIKEGGO-24" target="gXidW__dARr8UnIKEGGO-18">
          <mxGeometry relative="1" as="geometry" />
        </mxCell>
        <mxCell id="gXidW__dARr8UnIKEGGO-24" value="mostrar productos" style="ellipse;whiteSpace=wrap;html=1;fillColor=#fff2cc;strokeColor=#d6b656;" vertex="1" parent="1">
          <mxGeometry x="400" y="280" width="120" height="40" as="geometry" />
        </mxCell>
        <mxCell id="gXidW__dARr8UnIKEGGO-25" value="verificar stock" style="ellipse;whiteSpace=wrap;html=1;fillColor=#f8cecc;strokeColor=#b85450;" vertex="1" parent="1">
          <mxGeometry x="640" y="280" width="120" height="40" as="geometry" />
        </mxCell>
        <mxCell id="gXidW__dARr8UnIKEGGO-27" value="&amp;lt;include&amp;gt;" style="text;html=1;align=center;verticalAlign=middle;resizable=0;points=[];autosize=1;strokeColor=none;fillColor=none;" vertex="1" parent="1">
          <mxGeometry x="540" y="280" width="80" height="30" as="geometry" />
        </mxCell>
        <mxCell id="gXidW__dARr8UnIKEGGO-31" style="edgeStyle=none;rounded=0;orthogonalLoop=1;jettySize=auto;html=1;exitX=0;exitY=0.5;exitDx=0;exitDy=0;dashed=1;startArrow=none;startFill=0;endArrow=classic;endFill=1;entryX=1;entryY=1;entryDx=0;entryDy=0;" edge="1" parent="1" source="gXidW__dARr8UnIKEGGO-28" target="gXidW__dARr8UnIKEGGO-18">
          <mxGeometry relative="1" as="geometry">
            <mxPoint x="320" y="300" as="targetPoint" />
          </mxGeometry>
        </mxCell>
        <mxCell id="gXidW__dARr8UnIKEGGO-28" value="&lt;div&gt;seleccionar &lt;br&gt;&lt;/div&gt;&lt;div&gt;productos&lt;/div&gt;" style="ellipse;whiteSpace=wrap;html=1;fillColor=#fff2cc;strokeColor=#d6b656;" vertex="1" parent="1">
          <mxGeometry x="400" y="360" width="120" height="40" as="geometry" />
        </mxCell>
        <mxCell id="gXidW__dARr8UnIKEGGO-30" style="edgeStyle=none;rounded=0;orthogonalLoop=1;jettySize=auto;html=1;exitX=0;exitY=0.5;exitDx=0;exitDy=0;entryX=1;entryY=1;entryDx=0;entryDy=0;dashed=1;startArrow=none;startFill=0;endArrow=classic;endFill=1;" edge="1" parent="1" source="gXidW__dARr8UnIKEGGO-29" target="gXidW__dARr8UnIKEGGO-18">
          <mxGeometry relative="1" as="geometry" />
        </mxCell>
        <mxCell id="gXidW__dARr8UnIKEGGO-37" style="edgeStyle=none;rounded=0;orthogonalLoop=1;jettySize=auto;html=1;entryX=0;entryY=0.5;entryDx=0;entryDy=0;dashed=1;startArrow=none;startFill=0;endArrow=classic;endFill=1;" edge="1" parent="1" source="gXidW__dARr8UnIKEGGO-29" target="gXidW__dARr8UnIKEGGO-36">
          <mxGeometry relative="1" as="geometry" />
        </mxCell>
        <mxCell id="gXidW__dARr8UnIKEGGO-29" value="Pagar" style="ellipse;whiteSpace=wrap;html=1;fillColor=#fff2cc;strokeColor=#d6b656;" vertex="1" parent="1">
          <mxGeometry x="400" y="440" width="120" height="40" as="geometry" />
        </mxCell>
        <mxCell id="gXidW__dARr8UnIKEGGO-33" value="&amp;lt;include&amp;gt;" style="text;html=1;align=center;verticalAlign=middle;resizable=0;points=[];autosize=1;strokeColor=none;fillColor=none;" vertex="1" parent="1">
          <mxGeometry x="330" y="300" width="80" height="30" as="geometry" />
        </mxCell>
        <mxCell id="gXidW__dARr8UnIKEGGO-34" value="&amp;lt;extend&amp;gt;" style="text;html=1;align=center;verticalAlign=middle;resizable=0;points=[];autosize=1;strokeColor=none;fillColor=none;rotation=60;" vertex="1" parent="1">
          <mxGeometry x="315" y="390" width="70" height="30" as="geometry" />
        </mxCell>
        <mxCell id="gXidW__dARr8UnIKEGGO-35" value="&amp;lt;extend&amp;gt;" style="text;html=1;align=center;verticalAlign=middle;resizable=0;points=[];autosize=1;strokeColor=none;fillColor=none;rotation=35;" vertex="1" parent="1">
          <mxGeometry x="335" y="330" width="70" height="30" as="geometry" />
        </mxCell>
        <mxCell id="gXidW__dARr8UnIKEGGO-42" style="edgeStyle=none;rounded=0;orthogonalLoop=1;jettySize=auto;html=1;exitX=0.5;exitY=1;exitDx=0;exitDy=0;entryX=0.5;entryY=0;entryDx=0;entryDy=0;dashed=1;startArrow=classic;startFill=1;endArrow=none;endFill=0;" edge="1" parent="1" source="gXidW__dARr8UnIKEGGO-29" target="gXidW__dARr8UnIKEGGO-41">
          <mxGeometry relative="1" as="geometry">
            <mxPoint x="417.57359312880726" y="474.14213562373084" as="sourcePoint" />
          </mxGeometry>
        </mxCell>
        <mxCell id="gXidW__dARr8UnIKEGGO-45" style="edgeStyle=none;rounded=0;orthogonalLoop=1;jettySize=auto;html=1;exitX=0.5;exitY=1;exitDx=0;exitDy=0;entryX=0.5;entryY=0;entryDx=0;entryDy=0;dashed=1;startArrow=classic;startFill=1;endArrow=none;endFill=0;" edge="1" parent="1" source="gXidW__dARr8UnIKEGGO-29" target="gXidW__dARr8UnIKEGGO-43">
          <mxGeometry relative="1" as="geometry">
            <mxPoint x="502.42640687119274" y="474.14213562373106" as="sourcePoint" />
          </mxGeometry>
        </mxCell>
        <mxCell id="gXidW__dARr8UnIKEGGO-36" value="Verificar saldo" style="ellipse;whiteSpace=wrap;html=1;fillColor=#d5e8d4;strokeColor=#82b366;" vertex="1" parent="1">
          <mxGeometry x="640" y="440" width="120" height="40" as="geometry" />
        </mxCell>
        <mxCell id="gXidW__dARr8UnIKEGGO-39" value="&amp;lt;include&amp;gt;" style="text;html=1;align=center;verticalAlign=middle;resizable=0;points=[];autosize=1;strokeColor=none;fillColor=none;" vertex="1" parent="1">
          <mxGeometry x="540" y="440" width="80" height="30" as="geometry" />
        </mxCell>
        <mxCell id="gXidW__dARr8UnIKEGGO-41" value="Rechaza" style="ellipse;whiteSpace=wrap;html=1;fillColor=#f8cecc;strokeColor=#b85450;" vertex="1" parent="1">
          <mxGeometry x="320" y="520" width="120" height="40" as="geometry" />
        </mxCell>
        <mxCell id="gXidW__dARr8UnIKEGGO-43" value="&lt;div&gt;Confirmar&lt;/div&gt;&lt;div&gt;distribución&lt;br&gt;&lt;/div&gt;" style="ellipse;whiteSpace=wrap;html=1;fillColor=#f8cecc;strokeColor=#b85450;" vertex="1" parent="1">
          <mxGeometry x="480" y="520" width="120" height="40" as="geometry" />
        </mxCell>
        <mxCell id="gXidW__dARr8UnIKEGGO-46" value="&amp;lt;extend&amp;gt;" style="text;html=1;align=center;verticalAlign=middle;resizable=0;points=[];autosize=1;strokeColor=none;fillColor=none;" vertex="1" parent="1">
          <mxGeometry x="500" y="480" width="70" height="30" as="geometry" />
        </mxCell>
        <mxCell id="gXidW__dARr8UnIKEGGO-47" value="&amp;lt;extend&amp;gt;" style="text;html=1;align=center;verticalAlign=middle;resizable=0;points=[];autosize=1;strokeColor=none;fillColor=none;" vertex="1" parent="1">
          <mxGeometry x="360" y="480" width="70" height="30" as="geometry" />
        </mxCell>
        <mxCell id="gXidW__dARr8UnIKEGGO-51" style="edgeStyle=none;rounded=0;orthogonalLoop=1;jettySize=auto;html=1;exitX=0;exitY=0.5;exitDx=0;exitDy=0;entryX=1;entryY=0;entryDx=0;entryDy=0;dashed=1;startArrow=classic;startFill=1;endArrow=none;endFill=0;" edge="1" parent="1" source="gXidW__dARr8UnIKEGGO-48" target="gXidW__dARr8UnIKEGGO-43">
          <mxGeometry relative="1" as="geometry" />
        </mxCell>
        <mxCell id="gXidW__dARr8UnIKEGGO-48" value="Orden distribución" style="ellipse;whiteSpace=wrap;html=1;fillColor=#ffe6cc;strokeColor=#d79b00;" vertex="1" parent="1">
          <mxGeometry x="760" y="480" width="120" height="40" as="geometry" />
        </mxCell>
        <mxCell id="gXidW__dARr8UnIKEGGO-52" value="&amp;lt;include&amp;gt;" style="text;html=1;align=center;verticalAlign=middle;resizable=0;points=[];autosize=1;strokeColor=none;fillColor=none;rotation=-10;" vertex="1" parent="1">
          <mxGeometry x="630" y="510" width="80" height="30" as="geometry" />
        </mxCell>
        <mxCell id="gXidW__dARr8UnIKEGGO-55" style="edgeStyle=none;rounded=0;orthogonalLoop=1;jettySize=auto;html=1;exitX=0;exitY=0.5;exitDx=0;exitDy=0;entryX=1;entryY=1;entryDx=0;entryDy=0;dashed=1;startArrow=classic;startFill=1;endArrow=none;endFill=0;" edge="1" parent="1" source="gXidW__dARr8UnIKEGGO-53" target="gXidW__dARr8UnIKEGGO-43">
          <mxGeometry relative="1" as="geometry" />
        </mxCell>
        <mxCell id="gXidW__dARr8UnIKEGGO-53" value="Reparto" style="ellipse;whiteSpace=wrap;html=1;fillColor=#ffe6cc;strokeColor=#d79b00;" vertex="1" parent="1">
          <mxGeometry x="680" y="600" width="120" height="40" as="geometry" />
        </mxCell>
        <mxCell id="gXidW__dARr8UnIKEGGO-56" value="&amp;lt;include&amp;gt;" style="text;html=1;align=center;verticalAlign=middle;resizable=0;points=[];autosize=1;strokeColor=none;fillColor=none;rotation=35;" vertex="1" parent="1">
          <mxGeometry x="610" y="570" width="80" height="30" as="geometry" />
        </mxCell>
        <mxCell id="gXidW__dARr8UnIKEGGO-58" style="edgeStyle=none;rounded=0;orthogonalLoop=1;jettySize=auto;html=1;exitX=0.5;exitY=0;exitDx=0;exitDy=0;entryX=0;entryY=1;entryDx=0;entryDy=0;dashed=1;startArrow=classic;startFill=1;endArrow=none;endFill=0;" edge="1" parent="1" source="gXidW__dARr8UnIKEGGO-57" target="gXidW__dARr8UnIKEGGO-53">
          <mxGeometry relative="1" as="geometry" />
        </mxCell>
        <mxCell id="gXidW__dARr8UnIKEGGO-57" value="Entregar pedido" style="ellipse;whiteSpace=wrap;html=1;fillColor=#b0e3e6;strokeColor=#0e8088;" vertex="1" parent="1">
          <mxGeometry x="560" y="680" width="120" height="40" as="geometry" />
        </mxCell>
        <mxCell id="gXidW__dARr8UnIKEGGO-59" style="edgeStyle=none;rounded=0;orthogonalLoop=1;jettySize=auto;html=1;exitX=0.5;exitY=0;exitDx=0;exitDy=0;entryX=1;entryY=1;entryDx=0;entryDy=0;dashed=1;startArrow=classic;startFill=1;endArrow=none;endFill=0;" edge="1" parent="1" source="gXidW__dARr8UnIKEGGO-60" target="gXidW__dARr8UnIKEGGO-53">
          <mxGeometry relative="1" as="geometry">
            <mxPoint x="897.5735931288073" y="634.1421356237308" as="targetPoint" />
          </mxGeometry>
        </mxCell>
        <mxCell id="gXidW__dARr8UnIKEGGO-60" value="Confirmar pedido" style="ellipse;whiteSpace=wrap;html=1;fillColor=#b0e3e6;strokeColor=#0e8088;" vertex="1" parent="1">
          <mxGeometry x="800" y="680" width="120" height="40" as="geometry" />
        </mxCell>
        <mxCell id="gXidW__dARr8UnIKEGGO-63" value="&amp;lt;include&amp;gt;" style="text;html=1;align=center;verticalAlign=middle;resizable=0;points=[];autosize=1;strokeColor=none;fillColor=none;" vertex="1" parent="1">
          <mxGeometry x="590" y="635" width="80" height="30" as="geometry" />
        </mxCell>
        <mxCell id="gXidW__dARr8UnIKEGGO-64" value="&amp;lt;include&amp;gt;" style="text;html=1;align=center;verticalAlign=middle;resizable=0;points=[];autosize=1;strokeColor=none;fillColor=none;" vertex="1" parent="1">
          <mxGeometry x="800" y="635" width="80" height="30" as="geometry" />
        </mxCell>
      </root>
    </mxGraphModel>
  </diagram>
</mxfile>
